<?xml version="1.0" standalone="no"?>
<!DOCTYPE svg PUBLIC "-//W3C//DTD SVG 20010904//EN"
 "http://www.w3.org/TR/2001/REC-SVG-20010904/DTD/svg10.dtd">
<svg version="1.0" xmlns="http://www.w3.org/2000/svg"
 width="575.000000pt" height="575.000000pt" viewBox="0 0 575.000000 575.000000"
 preserveAspectRatio="xMidYMid meet">
<metadata>
Created by potrace 1.14, written by Peter Selinger 2001-2017
</metadata>
<g transform="translate(0.000000,575.000000) scale(0.100000,-0.100000)"
fill="#000000" stroke="none">
<path d="M2711 5079 c-66 -13 -126 -53 -185 -125 -64 -78 -119 -176 -110 -198
4 -10 0 -18 -10 -22 -23 -9 -40 -54 -76 -199 -35 -146 -37 -160 -12 -150 9 4
60 16 112 27 82 18 143 21 443 25 375 5 483 -2 639 -41 l89 -22 -3 25 c-2 18
-9 26 -20 25 -19 -2 -22 5 -12 30 3 9 10 14 14 11 4 -3 -1 31 -12 75 -11 44
-23 78 -27 75 -4 -2 -7 11 -7 29 0 37 -56 161 -108 239 -53 80 -130 156 -182
179 -75 33 -146 29 -226 -12 l-68 -35 -62 32 c-74 36 -116 44 -177 32z m429
-103 c0 -7 -7 -21 -15 -32 -19 -25 -19 -38 0 -31 21 9 28 -8 10 -23 -17 -14
-17 -15 -31 20 -14 34 1 91 21 84 8 -4 15 -12 15 -18z m-270 -5 c0 -5 -7 -14
-15 -21 -13 -10 -15 -9 -15 9 0 12 6 21 15 21 8 0 15 -4 15 -9z m189 -56 c1
-5 -6 -2 -15 7 -10 9 -13 21 -8 29 5 9 9 8 15 -7 4 -10 8 -23 8 -29z m-169
-31 c0 -8 -4 -14 -10 -14 -5 0 -10 9 -10 21 0 11 5 17 10 14 6 -3 10 -13 10
-21z m103 -9 c4 -8 2 -17 -3 -20 -6 -4 -10 3 -10 14 0 25 6 27 13 6z m311
-206 c-11 -18 -24 -8 -24 19 1 26 1 26 15 8 8 -10 12 -23 9 -27z m-574 -29 c0
-5 -7 -10 -16 -10 -8 0 -12 5 -9 10 3 6 10 10 16 10 5 0 9 -4 9 -10z"/>
<path d="M2650 4410 c-120 -8 -204 -21 -304 -46 -47 -12 -61 -13 -67 -3 -9 16
-114 -27 -197 -81 -63 -40 -132 -114 -132 -140 0 -42 73 -75 233 -104 99 -19
116 -24 103 -35 -50 -41 -39 -137 24 -205 34 -37 41 -54 64 -155 34 -151 81
-245 163 -326 l63 -63 0 -75 c0 -124 2 -121 -140 -135 -67 -7 -138 -19 -158
-28 -21 -9 -90 -20 -162 -25 -321 -23 -493 -134 -707 -454 -194 -291 -405
-719 -478 -971 -32 -110 -43 -257 -26 -346 30 -152 155 -320 286 -385 157 -79
340 -120 590 -133 105 -6 208 -16 230 -22 63 -18 349 -14 410 5 40 13 93 17
261 17 138 0 214 -4 221 -11 8 -8 13 -8 17 0 5 8 282 11 950 11 l943 0 6 257
c15 563 -3 788 -88 1143 -117 485 -284 696 -630 798 -80 24 -299 66 -427 82
-70 8 -92 15 -112 35 -41 40 -226 87 -276 68 -26 -10 -29 -9 -35 15 -3 14 -5
55 -4 91 2 65 3 67 54 121 95 101 139 193 170 355 14 70 24 97 46 120 34 36
68 110 69 146 0 15 -10 38 -21 53 -12 15 -20 28 -18 29 2 2 50 10 106 20 164
27 253 65 253 108 0 60 -283 252 -309 210 -5 -8 -20 -7 -57 3 -134 40 -484 77
-510 55 -6 -5 -14 -23 -18 -39 -3 -18 -12 -30 -21 -30 -12 0 -14 8 -9 40 l7
40 -124 -1 c-68 -1 -176 -5 -239 -9z m-28 -72 c-4 -16 -10 -19 -35 -14 -37 7
-49 24 -36 48 9 16 12 16 43 1 25 -12 32 -20 28 -35z m818 -8 c12 -8 12 -10
-4 -16 -11 -4 -24 0 -34 10 -15 15 -15 16 3 16 11 0 27 -4 35 -10z m-690 -21
c0 -5 -7 -9 -15 -9 -8 0 -15 7 -15 15 0 9 6 12 15 9 8 -4 15 -10 15 -15z m507
-45 l61 -7 12 -60 c15 -76 48 -143 92 -183 51 -49 67 -54 100 -35 27 15 30 15
43 -3 39 -52 -9 -161 -87 -202 -31 -16 -37 -34 -12 -34 13 0 15 -7 9 -42 -27
-161 -89 -291 -174 -371 -179 -165 -390 -193 -621 -80 -136 66 -227 186 -269
353 -31 125 -32 140 -16 140 25 0 17 17 -19 38 -78 46 -122 156 -78 195 17 16
24 17 44 6 29 -16 45 -13 84 16 37 28 97 140 114 212 12 51 12 52 53 56 74 6
602 7 664 1z m-812 -90 c-34 -76 -69 -124 -87 -124 -9 0 -1 124 12 170 5 21
13 26 56 30 27 3 50 4 52 4 2 -1 -13 -37 -33 -80z m66 30 c-18 -70 -66 -159
-103 -188 -51 -39 -54 -15 -5 35 31 31 54 69 77 126 37 90 49 101 31 27z m896
-6 c15 -70 42 -125 77 -157 31 -29 33 -41 7 -41 -48 0 -124 119 -137 214 -7
46 -6 48 16 44 20 -2 26 -13 37 -60z m393 40 c0 -6 -7 -7 -16 -4 -9 3 -18 6
-20 6 -3 0 -3 4 1 10 7 11 35 2 35 -12z m-306 -3 c3 -9 9 -53 12 -98 7 -77 6
-81 -10 -68 -26 22 -56 86 -63 136 -6 45 -6 45 25 45 18 0 32 -6 36 -15z
m-1160 -82 c-7 -117 -7 -115 -51 -108 -183 30 -303 65 -303 90 0 32 84 63 240
90 130 22 120 29 114 -72z m1400 57 c101 -22 161 -48 161 -70 0 -30 -129 -70
-306 -95 l-46 -6 -7 83 c-4 46 -10 92 -13 102 -5 18 -1 18 58 12 35 -4 104
-16 153 -26z m-1042 -1000 c74 -35 180 -60 253 -60 77 0 182 26 241 60 30 16
56 30 58 30 2 0 6 -48 8 -107 l5 -108 -150 -395 c-82 -217 -154 -406 -159
-420 -9 -23 -12 -19 -24 40 -34 161 -134 416 -254 648 -61 116 -68 137 -58
155 6 12 12 59 12 104 1 46 2 83 2 83 1 0 31 -14 66 -30z m801 -180 c37 -12
71 -28 74 -35 5 -16 -190 -297 -244 -351 -36 -36 -101 -59 -144 -50 -42 8 -42
-4 0 -50 28 -29 38 -48 34 -62 -3 -11 -33 -52 -66 -89 -34 -38 -87 -101 -117
-140 -30 -39 -56 -70 -58 -69 -4 5 319 850 331 865 15 18 100 10 190 -19z
m-840 -157 c120 -237 194 -424 237 -600 12 -50 20 -97 18 -103 -2 -6 -32 27
-68 72 -36 45 -93 114 -127 152 -34 39 -64 79 -67 89 -3 13 9 33 35 61 21 24
36 45 33 48 -3 3 -23 4 -44 1 -57 -8 -119 26 -167 90 -77 102 -203 286 -203
296 0 17 117 38 221 40 l57 1 75 -147z m-288 -45 c143 -206 195 -258 260 -258
29 0 31 -7 10 -34 -29 -38 -18 -71 41 -138 31 -35 83 -97 114 -138 32 -41 74
-91 94 -109 l36 -35 0 -107 0 -106 -40 -6 c-81 -11 -130 -68 -130 -151 0 -43
-2 -48 -20 -43 -31 8 -67 -28 -86 -86 -30 -94 -76 -136 -112 -104 -47 41 -131
70 -251 87 -94 13 -162 4 -209 -28 l-37 -25 -134 27 c-73 14 -136 24 -139 21
-13 -13 21 -26 137 -49 68 -14 125 -27 127 -29 2 -1 -10 -57 -26 -123 -49
-195 -73 -358 -74 -489 -1 -66 3 -135 7 -153 l9 -32 -134 6 c-222 9 -461 66
-599 140 -64 35 -166 144 -202 217 -78 152 -77 333 1 559 120 342 416 879 594
1073 137 150 297 228 501 245 180 14 150 30 262 -132z m1415 112 c408 -63 582
-137 723 -310 138 -169 242 -505 303 -985 13 -98 17 -195 15 -395 -1 -146 -4
-278 -5 -295 -2 -16 -4 -76 -4 -132 l-2 -103 -423 0 c-233 0 -426 2 -429 5 -2
2 1 46 8 97 41 298 70 858 46 858 -7 0 -12 -3 -12 -7 -9 -317 -34 -659 -63
-863 l-12 -85 -487 -3 -488 -2 0 85 0 85 133 0 c164 0 207 15 237 82 18 40 20
68 20 421 0 332 -2 377 -15 377 -12 0 -15 9 -13 34 5 74 -47 96 -226 96 l-136
0 0 113 0 113 31 30 c17 16 57 63 89 104 31 41 83 103 114 138 59 67 70 100
41 138 -21 27 -19 34 11 34 61 0 106 43 246 238 127 176 99 163 298 132z
m-702 -1212 c5 -39 -30 -56 -58 -28 -28 28 -11 63 28 58 21 -2 28 -9 30 -30z
m-224 -2 c-6 -16 -34 -29 -43 -20 -6 6 27 34 41 34 4 0 5 -6 2 -14z m-120
-102 c0 -27 -6 -79 -12 -116 -14 -74 -6 -110 28 -128 16 -8 57 -2 194 31 96
23 182 39 191 35 56 -21 -43 -82 -200 -121 -125 -32 -131 -34 -119 -45 5 -5
35 -3 74 5 83 18 80 18 80 -6 0 -11 5 -29 10 -39 11 -20 -6 -28 -98 -46 -31
-6 -41 -18 -23 -28 11 -7 175 38 268 74 77 29 100 29 87 -4 -14 -36 -279 -146
-353 -146 -12 0 -21 -6 -21 -16 0 -21 70 -10 174 27 91 33 114 36 123 13 9
-24 -28 -48 -122 -83 -123 -44 -237 -65 -323 -57 -40 4 -79 9 -86 12 -12 4
-14 42 -13 197 2 141 -2 205 -12 241 -13 43 -13 50 0 55 30 10 68 64 89 126
20 61 33 77 55 71 6 -2 10 -25 9 -52z m324 -16 c-2 -6 -10 -14 -16 -16 -7 -2
-10 2 -6 12 7 18 28 22 22 4z m-730 -44 c42 -8 105 -28 138 -43 56 -26 63 -33
80 -77 17 -43 19 -76 18 -259 -2 -313 -35 -443 -119 -473 -89 -30 -393 -25
-456 9 -57 30 -52 261 12 557 33 152 60 245 77 265 34 38 128 46 250 21z m858
-48 c19 -27 19 -126 0 -126 -9 0 -13 11 -12 32 1 25 -4 35 -25 45 -21 10 -41
9 -120 -7 -52 -11 -97 -20 -101 -20 -5 0 -8 15 -8 34 0 57 26 68 148 64 89 -3
106 -6 118 -22z m-439 -78 c-2 -13 -4 -3 -4 22 0 25 2 35 4 23 2 -13 2 -33 0
-45z m453 -103 c0 -24 -39 -52 -107 -80 -68 -27 -86 -24 -96 14 -8 31 9 45 90
72 79 27 113 25 113 -6z m0 -163 c0 -4 -7 -18 -16 -30 -15 -22 -17 -22 -29 -5
-12 16 -11 20 8 30 26 14 37 16 37 5z m-485 -228 c42 -4 80 -14 96 -25 14 -10
45 -21 68 -25 l42 -7 -3 -81 -3 -81 -199 -3 c-187 -2 -198 -1 -191 15 25 56
45 125 51 171 7 54 7 54 38 48 17 -3 63 -8 101 -12z"/>
<path d="M2629 4151 c-43 -14 -70 -32 -67 -43 6 -17 248 -18 248 -2 0 33 -124
64 -181 45z"/>
<path d="M3127 4150 c-34 -10 -57 -28 -57 -44 0 -14 233 -16 239 -1 2 6 -15
20 -39 33 -45 23 -93 27 -143 12z"/>
<path d="M2930 3996 c0 -15 -11 -78 -25 -142 -14 -64 -25 -128 -25 -143 0 -33
27 -61 58 -61 29 0 28 14 -3 28 -31 14 -31 29 -6 147 25 116 30 187 14 192 -8
3 -13 -5 -13 -21z"/>
<path d="M2666 3988 c-22 -30 -20 -61 4 -89 l20 -24 20 24 c25 29 26 73 2 94
-24 22 -28 21 -46 -5z"/>
<path d="M3172 3998 c-17 -17 -15 -84 4 -102 8 -9 17 -16 19 -16 14 0 35 37
35 61 0 56 -30 85 -58 57z"/>
<path d="M2772 3601 c-10 -28 -7 -41 9 -41 10 0 29 57 22 64 -12 12 -21 5 -31
-23z"/>
<path d="M2825 3618 c-10 -30 -9 -51 1 -55 6 -2 14 6 18 19 9 34 7 48 -4 48
-6 0 -13 -6 -15 -12z"/>
<path d="M2876 3619 c-11 -30 -10 -52 0 -56 14 -5 26 49 14 61 -6 6 -11 4 -14
-5z"/>
<path d="M2964 3616 c-8 -21 -1 -49 14 -54 8 -2 12 7 12 27 0 33 -17 51 -26
27z"/>
<path d="M3012 3598 c3 -35 28 -52 28 -20 0 28 -10 52 -22 52 -5 0 -8 -14 -6
-32z"/>
<path d="M3056 3622 c-8 -13 10 -62 24 -62 14 0 12 33 -3 55 -9 11 -16 14 -21
7z"/>
<path d="M2920 3590 c0 -16 5 -30 10 -30 6 0 10 14 10 30 0 17 -4 30 -10 30
-5 0 -10 -13 -10 -30z"/>
<path d="M2800 3511 c0 -19 59 -51 103 -57 51 -7 145 19 154 42 9 24 -1 25
-42 4 -51 -26 -120 -26 -163 0 -35 22 -52 25 -52 11z"/>
</g>
</svg>
